<svg width="24" height="24" viewBox="0 0 24 24" fill="none" xmlns="http://www.w3.org/2000/svg">
<g clip-path="url(#clip0)">
<path d="M23.9766 7.05607C23.9204 5.78085 23.7141 4.90416 23.4187 4.14449C23.114 3.33812 22.6451 2.61617 22.0309 2.01602C21.4307 1.40652 20.704 0.932921 19.907 0.632936C19.1429 0.337529 18.2708 0.131312 16.9956 0.0750879C15.7109 0.0141019 15.303 0 12.0446 0C8.78613 0 8.37827 0.0141019 7.0983 0.0703262C5.82309 0.126551 4.94639 0.332951 4.1869 0.628174C3.38035 0.932922 2.65841 1.40176 2.05825 2.01602C1.44876 2.61617 0.97534 3.34288 0.675172 4.13991C0.379765 4.90416 0.173549 5.77609 0.117324 7.0513C0.0563382 8.33604 0.0422363 8.7439 0.0422363 12.0023C0.0422363 15.2608 0.0563382 15.6686 0.112563 16.9486C0.168787 18.2238 0.375187 19.1005 0.670594 19.8602C0.97534 20.6666 1.44876 21.3885 2.05825 21.9887C2.65841 22.5982 3.38511 23.0718 4.18214 23.3718C4.94639 23.6672 5.81832 23.8734 7.09372 23.9296C8.37351 23.986 8.78155 23.9999 12.04 23.9999C15.2984 23.9999 15.7063 23.986 16.9863 23.9296C18.2615 23.8734 19.1382 23.6672 19.8977 23.3718C21.5106 22.7482 22.7858 21.4729 23.4094 19.8602C23.7046 19.096 23.911 18.2238 23.9672 16.9486C24.0235 15.6686 24.0376 15.2608 24.0376 12.0023C24.0376 8.7439 24.0328 8.33604 23.9766 7.05607ZM21.8153 16.8549C21.7637 18.027 21.5668 18.6599 21.4027 19.0819C20.9994 20.1274 20.1696 20.9572 19.1241 21.3605C18.7021 21.5246 18.0646 21.7215 16.8971 21.7729C15.6312 21.8293 15.2516 21.8433 12.0493 21.8433C8.84711 21.8433 8.4627 21.8293 7.20141 21.7729C6.0293 21.7215 5.39637 21.5246 4.97441 21.3605C4.45411 21.1682 3.9805 20.8634 3.59609 20.4649C3.19757 20.0758 2.89283 19.6069 2.70053 19.0866C2.53644 18.6647 2.33956 18.027 2.2881 16.8596C2.23169 15.5937 2.21777 15.2139 2.21777 12.0117C2.21777 8.80946 2.23169 8.42505 2.2881 7.16394C2.33956 5.99183 2.53644 5.3589 2.70053 4.93694C2.89283 4.41645 3.19758 3.94303 3.60085 3.55843C3.98984 3.15992 4.45868 2.85517 4.97917 2.66306C5.40113 2.49896 6.03883 2.30209 7.20617 2.25044C8.47204 2.19422 8.85187 2.18011 12.0539 2.18011C15.2609 2.18011 15.6405 2.19422 16.9018 2.25044C18.0739 2.30209 18.7069 2.49896 19.1288 2.66306C19.6491 2.85517 20.1227 3.15992 20.5072 3.55843C20.9057 3.94761 21.2104 4.41645 21.4027 4.93694C21.5668 5.3589 21.7637 5.99641 21.8153 7.16394C21.8716 8.42981 21.8857 8.80946 21.8857 12.0117C21.8857 15.2139 21.8716 15.589 21.8153 16.8549Z" fill="#8075FF"/>
<path d="M12.0448 5.83691C8.6411 5.83691 5.87952 8.59832 5.87952 12.0022C5.87952 15.406 8.6411 18.1674 12.0448 18.1674C15.4486 18.1674 18.21 15.406 18.21 12.0022C18.21 8.59832 15.4486 5.83691 12.0448 5.83691ZM12.0448 16.0014C9.83665 16.0014 8.04553 14.2105 8.04553 12.0022C8.04553 9.79386 9.83665 8.00293 12.0448 8.00293C14.2531 8.00293 16.044 9.79386 16.044 12.0022C16.044 14.2105 14.2531 16.0014 12.0448 16.0014Z" fill="#8075FF"/>
<path d="M19.8935 5.59312C19.8935 6.38795 19.249 7.03243 18.454 7.03243C17.6591 7.03243 17.0146 6.38795 17.0146 5.59312C17.0146 4.7981 17.6591 4.15381 18.454 4.15381C19.249 4.15381 19.8935 4.7981 19.8935 5.59312Z" fill="#8075FF"/>
</g>
<defs>
<clipPath id="clip0">
<rect width="24" height="24" fill="white"/>
</clipPath>
</defs>
</svg>
