<svg width="24" height="24" viewBox="0 0 24 24" fill="none" xmlns="http://www.w3.org/2000/svg">
<g clip-path="url(#clip0)">
<path d="M23.6294 2.38403C23.3363 2.02551 22.8972 1.82812 22.3929 1.82812C22.1188 1.82812 21.8284 1.8858 21.5299 1.99988L1.21439 9.75494C0.136268 10.1664 -0.00893449 10.7838 0.000403879 11.1152C0.00974225 11.4467 0.189735 12.0549 1.28947 12.4048C1.29606 12.4069 1.30265 12.4089 1.30924 12.4107L5.52323 13.6166L7.80216 20.1334C8.11289 21.0218 8.81034 21.5737 9.6226 21.5737C10.1347 21.5737 10.6385 21.3591 11.0794 20.9533L13.6859 18.5533L17.4665 21.5975C17.4668 21.5978 17.4674 21.598 17.4678 21.5984L17.5036 21.6273C17.5069 21.6299 17.5104 21.6326 17.5137 21.6352C17.9339 21.9611 18.3926 22.1332 18.8407 22.1334H18.8409C19.7163 22.1334 20.4134 21.4854 20.6164 20.4827L23.9451 4.04645C24.0788 3.38672 23.9667 2.79639 23.6294 2.38403ZM6.93296 13.3876L15.063 9.23419L10.0007 14.6133C9.91776 14.7014 9.85899 14.8092 9.83006 14.9266L8.85392 18.8806L6.93296 13.3876ZM10.1267 19.9188C10.093 19.9497 10.0591 19.9774 10.0252 20.0028L10.9309 16.3348L12.5783 17.6614L10.1267 19.9188ZM22.5669 3.76721L19.2382 20.2037C19.2062 20.361 19.1038 20.727 18.8407 20.727C18.7107 20.727 18.5473 20.6561 18.3802 20.5274L14.0962 17.0781C14.0957 17.0775 14.0949 17.077 14.0942 17.0766L11.5452 15.024L18.8659 7.24512C19.1003 6.99609 19.1216 6.61469 18.9163 6.34113C18.7109 6.06757 18.3386 5.98151 18.0341 6.13715L5.99345 12.2884L1.72214 11.0663L22.0315 3.31366C22.203 3.24811 22.3228 3.23438 22.3929 3.23438C22.4359 3.23438 22.5125 3.2395 22.5409 3.27448C22.5782 3.32007 22.6258 3.47552 22.5669 3.76721Z" fill="white"/>
</g>
<defs>
<clipPath id="clip0">
<rect width="24" height="24" fill="white"/>
</clipPath>
</defs>
</svg>
