<svg width="24" height="22" viewBox="0 0 24 22" fill="none" xmlns="http://www.w3.org/2000/svg">
<path d="M23.6296 1.38403C23.3364 1.02551 22.8973 0.828125 22.393 0.828125C22.1189 0.828125 21.8285 0.885803 21.5301 0.999878L1.21452 8.75494C0.13639 9.16638 -0.00881242 9.78381 0.000525949 10.1152C0.00986432 10.4467 0.189857 11.0549 1.28959 11.4048C1.29618 11.4069 1.30277 11.4089 1.30936 11.4107L5.52335 12.6166L7.80228 19.1334C8.11301 20.0218 8.81046 20.5737 9.62272 20.5737C10.1349 20.5737 10.6386 20.3591 11.0795 19.9533L13.686 17.5533L17.4666 20.5975C17.467 20.5978 17.4675 20.598 17.4679 20.5984L17.5038 20.6273C17.5071 20.6299 17.5105 20.6326 17.5138 20.6352C17.9341 20.9611 18.3927 21.1332 18.8408 21.1334H18.841C19.7164 21.1334 20.4135 20.4854 20.6166 19.4827L23.9452 3.04645C24.0789 2.38672 23.9668 1.79639 23.6296 1.38403ZM6.93308 12.3876L15.0631 8.23419L10.0008 13.6133C9.91788 13.7014 9.85911 13.8092 9.83018 13.9266L8.85404 17.8806L6.93308 12.3876ZM10.1268 18.9188C10.0931 18.9497 10.0592 18.9774 10.0254 19.0028L10.931 15.3348L12.5784 16.6614L10.1268 18.9188ZM22.567 2.76721L19.2383 19.2037C19.2063 19.361 19.1039 19.727 18.8408 19.727C18.7108 19.727 18.5475 19.6561 18.3803 19.5274L14.0964 16.0781C14.0958 16.0775 14.0951 16.077 14.0943 16.0766L11.5453 14.024L18.8661 6.24512C19.1004 5.99609 19.1217 5.61469 18.9164 5.34113C18.711 5.06757 18.3387 4.98151 18.0342 5.13715L5.99357 11.2884L1.72227 10.0663L22.0316 2.31366C22.2032 2.24811 22.3229 2.23438 22.393 2.23438C22.4361 2.23438 22.5126 2.2395 22.541 2.27448C22.5783 2.32007 22.626 2.47552 22.567 2.76721Z" fill="#8075FF"/>
</svg>
