<svg width="22" height="24" viewBox="0 0 22 24" fill="none" xmlns="http://www.w3.org/2000/svg">
<path d="M20.7844 5.27179C18.2653 5.27179 16.2158 3.22229 16.2158 0.703125C16.2158 0.314758 15.9008 0 15.5126 0H11.7469C11.3585 0 11.0438 0.314758 11.0438 0.703125V16.1422C11.0438 17.6232 9.83893 18.828 8.35779 18.828C6.87683 18.828 5.672 17.6232 5.672 16.1422C5.672 14.6611 6.87683 13.4562 8.35779 13.4562C8.74615 13.4562 9.06091 13.1415 9.06091 12.7531V8.98737C9.06091 8.59918 8.74615 8.28424 8.35779 8.28424C4.02496 8.28424 0.5 11.8094 0.5 16.1422C0.5 20.475 4.02496 24 8.35779 24C12.6906 24 16.2158 20.475 16.2158 16.1422V9.30817C17.6152 10.0543 19.1724 10.4438 20.7844 10.4438C21.1728 10.4438 21.4875 10.129 21.4875 9.74066V5.97491C21.4875 5.58673 21.1728 5.27179 20.7844 5.27179ZM20.0813 9.00842C18.5802 8.88354 17.1547 8.35913 15.9232 7.47327C15.7091 7.31909 15.4268 7.29785 15.1918 7.41833C14.9571 7.53845 14.8095 7.78015 14.8095 8.04401V16.1422C14.8095 19.6996 11.9152 22.5938 8.35779 22.5938C4.80042 22.5938 1.90625 19.6996 1.90625 16.1422C1.90625 12.8223 4.42688 10.08 7.65466 9.72858V12.1104C5.73206 12.4448 4.26575 14.1253 4.26575 16.1422C4.26575 18.3986 6.10138 20.2344 8.35779 20.2344C10.6144 20.2344 12.45 18.3986 12.45 16.1422V1.40625H14.8505C15.1726 4.14001 17.3475 6.31494 20.0813 6.63702V9.00842Z" fill="#8075FF"/>
</svg>
